<svg width="180" height="180" viewBox="0 0 180 180" fill="none" xmlns="http://www.w3.org/2000/svg">
<g clip-path="url(#clip0_1_9)">
<path d="M17.5781 158.904C15.6363 158.904 14.0625 160.477 14.0625 162.419V162.422C14.0625 164.362 15.6363 165.936 17.5781 165.936C19.52 165.936 21.0938 164.361 21.0938 162.419C21.0938 160.477 19.52 158.904 17.5781 158.904Z" fill="white"/>
<path d="M176.484 0H148.359C146.418 0 144.844 1.57379 144.844 3.51562V7.18506L140.153 7.15622C140.146 7.15622 140.137 7.15622 140.131 7.15622C138.2 7.15622 136.627 8.7149 136.615 10.6485C136.603 12.5903 138.167 14.1751 140.109 14.1875L144.844 14.2163V50.6909C135.639 56.489 127.33 53.1505 118.56 49.6184C112.782 47.2906 106.804 44.8846 100.839 45.6331C98.958 45.8693 93.8795 46.6068 88.5045 47.3868C83.4109 48.1256 78.143 48.8905 76.3316 49.1185C75.4102 49.2339 74.4914 48.9771 73.7444 48.3961C72.9822 47.8015 72.496 46.9487 72.3779 45.9929C72.301 45.3708 72.0964 43.716 76.5019 41.6711C85.8279 37.3466 95.7664 33.6443 103.77 31.5143C105.646 31.0144 106.762 29.0891 106.263 27.2118C105.764 25.3358 103.839 24.2207 101.961 24.7192C93.5815 26.9495 83.2228 30.8043 73.5438 35.2936C70.1765 36.855 68.107 38.6719 66.8875 40.5038L31.6406 50.1155C27.9327 51.048 26.0307 49.5717 25.4855 47.8784C24.95 46.2112 25.5968 44.062 28.2486 43.0156C31.0075 41.965 37.5925 39.066 45.9256 35.3993C56.9696 30.5392 70.7121 24.4899 81.671 20.0446C94.6939 14.7615 98.6627 13.965 111.996 14.0131H112.007C113.943 14.0131 115.516 12.4461 115.523 10.5084C115.528 8.56659 113.958 6.9873 112.017 6.98181C97.7948 6.93375 92.8606 7.9184 79.0288 13.5297C67.9738 18.0135 54.1791 24.0848 43.0939 28.9627C35.1604 32.455 28.3076 35.4707 25.7286 36.4513C25.7176 36.4554 25.7066 36.4595 25.6957 36.4636C19.1272 39.0399 17.2513 45.239 18.7921 50.0304C20.3096 54.7517 25.5281 58.9224 33.3984 56.9243C33.419 56.9188 33.4383 56.9147 33.4589 56.9078L65.6364 48.1339C66.2077 50.4327 67.5233 52.4638 69.4254 53.9442C71.6569 55.6815 74.4214 56.445 77.2078 56.0948C79.0865 55.8586 84.1511 55.1225 89.5138 54.3452C94.6211 53.6037 99.9 52.8374 101.716 52.6094C105.87 52.0876 110.759 54.0555 115.933 56.1401C121.417 58.3484 127.664 60.8656 134.425 60.8643C137.781 60.8643 141.265 60.238 144.844 58.6505V59.7656C144.844 61.7075 146.418 63.2812 148.359 63.2812H176.484C178.426 63.2812 180 61.7075 180 59.7656V3.51562C180 1.57379 178.426 0 176.484 0ZM172.969 56.25H151.875V10.7487V10.746C151.875 10.746 151.875 10.7433 151.875 10.7419V7.03125H172.969V56.25Z" fill="white"/>
<path d="M162.422 21.0965C164.364 21.0965 165.938 19.5227 165.938 17.5809V17.5781C165.938 15.6377 164.364 14.0639 162.422 14.0639C160.48 14.0639 158.906 15.639 158.906 17.5809C158.906 19.5227 160.48 21.0965 162.422 21.0965Z" fill="white"/>
<path d="M65.3906 114.609C73.7334 114.609 81.1162 110.432 85.5684 104.062H98.557C99.4894 104.062 100.383 103.692 101.043 103.033L107.044 97.0312H111.164L117.165 103.033C117.824 103.692 118.718 104.062 119.651 104.062H125.156C126.089 104.062 126.983 103.692 127.642 103.033L138.189 92.4857C138.848 91.8265 139.219 90.9325 139.219 90V79.4531C139.219 77.5127 137.645 75.9375 135.703 75.9375H85.5698C81.1162 69.5682 73.7347 65.3906 65.3906 65.3906C51.8211 65.3906 40.7812 76.4305 40.7812 90C40.7812 103.569 51.8211 114.609 65.3906 114.609ZM132.188 82.9688V88.5443L123.701 97.0312H121.108L115.105 91.03C114.446 90.3708 113.552 90 112.619 90H105.588C104.656 90 103.762 90.3708 103.103 91.03L97.1013 97.0312H88.9714C89.6375 94.8024 90 92.4431 90 90C90 87.5569 89.6375 85.1976 88.9714 82.9688H132.188ZM65.3906 72.4219C75.0833 72.4219 82.9688 80.3073 82.9688 90C82.9688 99.6927 75.0833 107.578 65.3906 107.578C55.6979 107.578 47.8125 99.6927 47.8125 90C47.8125 80.3073 55.6979 72.4219 65.3906 72.4219Z" fill="white"/>
<path d="M58.3594 93.5156C60.3012 93.5156 61.875 91.9405 61.875 89.9986C61.875 88.0568 60.3012 86.483 58.3594 86.483C56.4175 86.483 54.8438 88.0568 54.8438 89.9986V90.0014C54.8438 91.9432 56.4175 93.5156 58.3594 93.5156Z" fill="white"/>
<path d="M126.068 14.0996H126.069C128.011 14.0996 129.584 12.5244 129.584 10.584C129.584 8.64212 128.009 7.06833 126.068 7.06833C124.126 7.06833 122.552 8.64212 122.552 10.584C122.552 12.5244 124.126 14.0996 126.068 14.0996Z" fill="white"/>
<path d="M146.602 123.076C146.581 123.081 146.562 123.085 146.541 123.092L114.364 131.866C113.792 129.567 112.477 127.536 110.575 126.056C108.343 124.319 105.579 123.555 102.792 123.905C100.914 124.141 95.8488 124.877 90.4861 125.655C85.3789 126.396 80.0999 127.163 78.2844 127.391C74.1316 127.911 69.2413 125.945 64.0668 123.86C55.86 120.556 45.9407 116.562 35.1562 121.345V120.236C35.1562 118.294 33.5825 116.72 31.6406 116.72H3.51562C1.57379 116.72 0 118.294 0 120.236V176.484C0 178.426 1.57379 180 3.51562 180H31.6406C33.5825 180 35.1562 178.426 35.1562 176.484V172.815L39.8474 172.844H39.8694C41.8002 172.844 43.3726 171.285 43.385 169.35C43.3974 167.41 41.8332 165.825 39.8914 165.813L35.1562 165.784V129.309C44.3614 123.511 52.6698 126.85 61.4397 130.38C67.2198 132.709 73.1992 135.115 79.1606 134.366C81.0434 134.129 86.1204 133.393 91.4955 132.613C96.589 131.873 101.857 131.109 103.668 130.882C104.59 130.766 105.509 131.022 106.256 131.604C107.019 132.198 107.504 133.051 107.622 134.007C107.699 134.629 107.905 136.284 103.498 138.327C94.1721 142.653 84.2349 146.356 76.2314 148.486C74.3555 148.986 73.239 150.911 73.7375 152.787C74.2374 154.664 76.1641 155.778 78.0386 155.281C86.4184 153.051 96.7772 149.196 106.458 144.706C109.823 143.145 111.893 141.328 113.114 139.496L148.359 129.884C152.066 128.951 153.969 130.428 154.514 132.122C155.05 133.789 154.403 135.938 151.753 136.984C148.995 138.035 142.408 140.934 134.073 144.602C123.03 149.462 109.288 155.51 98.329 159.955C85.3061 165.238 81.329 166.038 68.004 165.987C68.0012 165.987 67.9971 165.987 67.993 165.987C66.0567 165.987 64.4842 167.554 64.4774 169.492C64.4719 171.433 66.0416 173.013 67.9834 173.018C68.2704 173.02 68.5533 173.02 68.8335 173.02C82.4098 173.02 87.4196 171.969 100.971 166.47C112.025 161.987 125.821 155.915 136.905 151.037C144.84 147.545 151.692 144.529 154.27 143.549C154.281 143.545 154.292 143.54 154.304 143.536C160.873 140.96 162.749 134.761 161.208 129.97C159.69 125.25 154.472 121.079 146.602 123.076ZM7.03125 172.969V123.75H28.125V169.255V169.259V172.969H7.03125Z" fill="white"/>
<path d="M53.9333 165.9H53.9305C51.9887 165.9 50.4163 167.476 50.4163 169.416C50.4163 171.358 51.9914 172.932 53.9333 172.932C55.8751 172.932 57.4489 171.358 57.4489 169.416C57.4489 167.476 55.8751 165.9 53.9333 165.9Z" fill="white"/>
</g>
<defs>
<clipPath id="clip0_1_9">
<rect width="180" height="180" fill="white"/>
</clipPath>
</defs>
</svg>
